# xmcd
#
# Track frame offsets:
#	150
#	10025
#	28529
#	45989
#	58212
#	71683
#	86957
#	105021
#	120585
#	139535
#	154568
#	171792
#	193947
#	205819
#	225878
#	236600
#
# Disc length: 3416 seconds
# Revision: 4
# Processed by: cddbd v1.5.2PL0 Copyright (c) Steve Scherf et al.
# Submitted via: dBpowerAMP V12.0
#
DISCID=c30d5610
DTITLE=RhondaLeaVincent,Kirksville,MO - Sunday Mornin' Singin' - Live!
DYEAR=2012
DGENRE=Country
TTITLE0=I Feel Closer to Heaven Everyday
TTITLE1=Blue Sky Cathedral
TTITLE2=His Promised Land
TTITLE3=Where We'll Never Say Farewell
TTITLE4=Silent Partner
TTITLE5=Just as I Am
TTITLE6=God Put a Rainbow in the Clouds
TTITLE7=Prettiest Flower There
TTITLE8=The Last Best Place
TTITLE9=Walking My Lord (Up Calvary's Hill)
TTITLE10=Fishers of Men
TTITLE11=Homecoming
TTITLE12=Where No Cabins Fall
TTITLE13=Help Me to Be More Like Him
TTITLE14=Joshua
TTITLE15=Old Rugged Cross
EXTD=
EXTT0=
EXTT1=
EXTT2=
EXTT3=
EXTT4=
EXTT5=
EXTT6=
EXTT7=
EXTT8=
EXTT9=
EXTT10=
EXTT11=
EXTT12=
EXTT13=
EXTT14=
EXTT15=
PLAYORDER=
